# xmcd
#
# Track frame offsets:
#	150
#	19320
#	34001
#	48378
#	64547
#	75214
#	93408
#	107476
#	125217
#	141688
#	154003
#	172867
#
# Disc length: 2470 seconds
#
# Revision: 1
# Processed by: cddbd v1.5.1PL0 Copyright (c) Steve Scherf et al.
# Submitted via: audiograbber 1.82.02
#
DISCID=9609a40c
DTITLE=Owen Blundell - From The Heart Of The Mountains
DYEAR=1900
DGENRE=Country
TTITLE0=Jodie
TTITLE1=You Can't Buy Love With Money
TTITLE2=Snowy Mountain Call
TTITLE3=Queen Of Ice
TTITLE4=Ding Dong Bells
TTITLE5=Lonely Sunday Songs
TTITLE6=The Strangers In The Night
TTITLE7=I'll Fall In Love Every Time
TTITLE8=The Blind Girl
TTITLE9=The Stockmans Lullaby
TTITLE10=A Couple We'll Never Forget
TTITLE11=Poor Boy
EXTD=
EXTT0=
EXTT1=
EXTT2=
EXTT3=
EXTT4=
EXTT5=
EXTT6=
EXTT7=
EXTT8=
EXTT9=
EXTT10=
EXTT11=
PLAYORDER=
